<svg width="173" height="89" viewBox="0 0 173 89" fill="none" xmlns="http://www.w3.org/2000/svg">
<path d="M154.919 44.3053L151.338 28.5695C151.246 28.1647 150.913 27.8589 150.502 27.8012L133.914 25.4698C132.932 25.3317 132.729 24.0016 133.625 23.5762L169.782 6.4105C170.6 6.02236 171.471 6.83335 171.143 7.67671L156.826 44.4463C156.468 45.3648 155.138 45.2665 154.919 44.3053Z" fill="white"/>
<rect y="39" width="142" height="46" rx="10" fill="white"/>
<path d="M10.2266 50.4668H24.9629V52.9863H13.0977V59.3438H19.1035C20.3633 59.3438 21.457 59.4902 22.3848 59.7832C23.3125 60.0762 24.084 60.4961 24.6992 61.043C25.3145 61.5898 25.7686 62.2539 26.0615 63.0352C26.3643 63.8164 26.5156 64.6953 26.5156 65.6719C26.5156 66.6289 26.3643 67.498 26.0615 68.2793C25.7588 69.0508 25.3145 69.7148 24.7285 70.2715C24.1523 70.8184 23.4395 71.2432 22.5898 71.5459C21.75 71.8486 20.7881 72 19.7041 72H10.2266V50.4668ZM13.0977 69.4805H19.3232C19.9092 69.4805 20.4512 69.417 20.9492 69.29C21.457 69.1631 21.8965 68.9531 22.2676 68.6602C22.6387 68.3574 22.9268 67.9668 23.1318 67.4883C23.3467 67 23.4541 66.3945 23.4541 65.6719C23.4541 64.959 23.3418 64.3584 23.1172 63.8701C22.9023 63.3818 22.5898 62.9912 22.1797 62.6982C21.7695 62.3955 21.2715 62.1807 20.6855 62.0537C20.0996 61.9268 19.4355 61.8633 18.6934 61.8633H13.0977V69.4805ZM49.7264 61.2334C49.7264 62.1611 49.6336 63.0889 49.448 64.0166C49.2625 64.9346 48.9793 65.8135 48.5984 66.6533C48.2176 67.4834 47.7391 68.2598 47.1629 68.9824C46.5965 69.6953 45.9227 70.3203 45.1414 70.8574C44.3602 71.3848 43.4764 71.7949 42.49 72.0879C41.5135 72.3906 40.4295 72.542 39.2381 72.542C38.0467 72.542 36.9578 72.3906 35.9715 72.0879C34.9852 71.7949 34.1014 71.3848 33.3201 70.8574C32.5486 70.3203 31.8748 69.6953 31.2986 68.9824C30.7225 68.2598 30.2439 67.4834 29.8631 66.6533C29.4822 65.8135 29.199 64.9346 29.0135 64.0166C28.8279 63.0889 28.7352 62.1611 28.7352 61.2334C28.7352 59.5635 28.9695 58.0352 29.4383 56.6484C29.9168 55.2617 30.6053 54.0703 31.5037 53.0742C32.4021 52.0781 33.5008 51.3066 34.7996 50.7598C36.0984 50.2031 37.5779 49.9248 39.2381 49.9248C40.8885 49.9248 42.3631 50.2031 43.6619 50.7598C44.9705 51.3066 46.0691 52.0781 46.9578 53.0742C47.8563 54.0703 48.5398 55.2617 49.0086 56.6484C49.4871 58.0352 49.7264 59.5635 49.7264 61.2334ZM46.8553 61.2334C46.8553 59.9541 46.6844 58.7773 46.3426 57.7031C46.0008 56.6191 45.5027 55.6914 44.8484 54.9199C44.2039 54.1387 43.408 53.5332 42.4607 53.1035C41.5135 52.6641 40.4393 52.4443 39.2381 52.4443C38.0271 52.4443 36.948 52.6641 36.0008 53.1035C35.0535 53.5332 34.2527 54.1387 33.5984 54.9199C32.9539 55.6914 32.4607 56.6191 32.1189 57.7031C31.7771 58.7773 31.6063 59.9541 31.6063 61.2334C31.6063 62.542 31.7625 63.7383 32.075 64.8223C32.3875 65.8965 32.8611 66.8193 33.4959 67.5908C34.1307 68.3623 34.9217 68.9629 35.8689 69.3926C36.826 69.8125 37.949 70.0225 39.2381 70.0225C40.5174 70.0225 41.6355 69.8125 42.5926 69.3926C43.5496 68.9629 44.3406 68.3623 44.9656 67.5908C45.6004 66.8193 46.074 65.8965 46.3865 64.8223C46.699 63.7383 46.8553 62.542 46.8553 61.2334ZM52.8395 50.4668H65.4957V52.9863H55.7105V72H52.8395V50.4668ZM66.4408 76.6143V69.4805H68.3891C68.5941 69.0117 68.7846 68.5381 68.9604 68.0596C69.1361 67.5713 69.2973 67.0244 69.4437 66.4189C69.6 65.8037 69.7416 65.1006 69.8686 64.3096C70.0053 63.5186 70.1322 62.5811 70.2494 61.4971C70.3861 60.3545 70.4936 59.2314 70.5717 58.1279C70.6498 57.0146 70.7084 55.9746 70.7475 55.0078C70.7963 54.041 70.8256 53.167 70.8354 52.3857C70.8549 51.6045 70.8695 50.9648 70.8793 50.4668H84.4145V69.4805H86.8461V76.6143H84.1508V72H69.1361V76.6143H66.4408ZM73.5746 52.9863C73.5746 54.3828 73.516 55.7744 73.3988 57.1611C73.2914 58.5479 73.1596 59.9443 73.0033 61.3506C72.8959 62.4639 72.7836 63.4111 72.6664 64.1924C72.559 64.9639 72.4418 65.6523 72.3148 66.2578C72.1977 66.8535 72.0609 67.4053 71.9047 67.9131C71.7582 68.4111 71.5873 68.9336 71.392 69.4805H81.4555V52.9863H73.5746ZM100.257 63.123L96.9758 53.543L93.343 63.123H100.257ZM87.1613 72L95.2326 50.1299H98.7336L106.541 72H103.348L101.077 65.4082H92.6105L90.2082 72H87.1613ZM108.922 50.4668H111.793V59.3438H123.248V50.4668H126.134V72H123.248V61.8633H111.793V72H108.922V50.4668Z" fill="black"/>
</svg>
