<svg width="32" height="32" viewBox="0 0 32 32" fill="none" xmlns="http://www.w3.org/2000/svg">
<path d="M14.5 27C14.5 27.8284 15.1716 28.5 16 28.5C16.8284 28.5 17.5 27.8284 17.5 27L16 27L14.5 27ZM17.0607 2.93934C16.4749 2.35355 15.5251 2.35355 14.9393 2.93934L5.3934 12.4853C4.80761 13.0711 4.80761 14.0208 5.3934 14.6066C5.97918 15.1924 6.92893 15.1924 7.51472 14.6066L16 6.12132L24.4853 14.6066C25.0711 15.1924 26.0208 15.1924 26.6066 14.6066C27.1924 14.0208 27.1924 13.0711 26.6066 12.4853L17.0607 2.93934ZM16 27L17.5 27L17.5 4L16 4L14.5 4L14.5 27L16 27Z" fill="white"/>
</svg>
