<svg width="144" height="76" viewBox="0 0 144 76" fill="none" xmlns="http://www.w3.org/2000/svg">
<path d="M43.7133 16.053L28.0826 20.0681C27.6805 20.1714 27.384 20.5124 27.3376 20.9249L25.466 37.5704C25.3551 38.5563 24.0312 38.7965 23.5811 37.9124L5.42186 2.24361C5.01126 1.43708 5.79783 0.543456 6.64994 0.848382L43.8014 14.1429C44.7295 14.475 44.6681 15.8077 43.7133 16.053Z" fill="#FECC33"/>
<rect x="40" y="25.9995" width="104" height="46" rx="10" fill="#FECC33"/>
<path d="M50.2266 37.4663H54.3574L60.4512 55.5864H60.5098L66.6035 37.4663H70.7344V58.9995H68.0391V40.8794H67.9805L61.916 58.9995H59.0449L52.9805 40.8794H52.9219V58.9995H50.2266V37.4663ZM86.3133 50.1226L83.032 40.5425L79.3992 50.1226H86.3133ZM73.2176 58.9995L81.2889 37.1294H84.7898L92.5975 58.9995H89.4041L87.1336 52.4077H78.6668L76.2645 58.9995H73.2176ZM94.9781 37.4663H97.8492V47.9546L108.352 37.4663H112.366L103.401 46.1528L112.615 58.9995H108.923L101.336 48.145L97.8492 51.4995V58.9995H94.9781V37.4663ZM116.504 48.2036C116.504 49.5513 116.675 50.772 117.017 51.8657C117.359 52.9497 117.837 53.8726 118.453 54.6343C119.078 55.396 119.825 55.9868 120.694 56.4067C121.573 56.8169 122.539 57.022 123.594 57.022C124.512 57.022 125.332 56.856 126.055 56.5239C126.787 56.1919 127.417 55.7573 127.945 55.2202C128.472 54.6733 128.897 54.0581 129.219 53.3745C129.541 52.6909 129.756 51.9976 129.864 51.2944H132.647C132.588 51.9194 132.452 52.5591 132.237 53.2134C132.032 53.8579 131.748 54.4878 131.387 55.103C131.036 55.7085 130.611 56.2847 130.113 56.8315C129.615 57.3687 129.038 57.8374 128.384 58.2378C127.74 58.6382 127.017 58.9556 126.216 59.1899C125.415 59.4243 124.541 59.5415 123.594 59.5415C122.94 59.5415 122.237 59.4731 121.485 59.3364C120.743 59.1997 120 58.9702 119.258 58.6479C118.526 58.3257 117.818 57.896 117.134 57.3589C116.46 56.812 115.865 56.1284 115.347 55.3081C114.829 54.4878 114.414 53.521 114.102 52.4077C113.789 51.2847 113.633 49.981 113.633 48.4966C113.633 47.0415 113.77 45.7427 114.043 44.6001C114.327 43.4575 114.707 42.4614 115.186 41.6118C115.674 40.7524 116.241 40.0249 116.885 39.4292C117.539 38.8335 118.238 38.3501 118.98 37.979C119.722 37.6079 120.494 37.3394 121.294 37.1733C122.095 37.0073 122.891 36.9243 123.682 36.9243C124.659 36.9243 125.547 37.0269 126.348 37.2319C127.159 37.4272 127.881 37.7007 128.516 38.0522C129.161 38.394 129.722 38.7944 130.201 39.2534C130.679 39.7124 131.079 40.2007 131.402 40.7183C131.734 41.2261 131.988 41.7485 132.163 42.2856C132.349 42.8228 132.461 43.3452 132.5 43.853H129.688C129.502 43.1597 129.229 42.5396 128.868 41.9927C128.506 41.4458 128.067 40.9868 127.549 40.6157C127.041 40.2349 126.465 39.9468 125.821 39.7515C125.186 39.5464 124.502 39.4438 123.77 39.4438C122.666 39.4438 121.665 39.6489 120.767 40.0591C119.878 40.4692 119.117 41.0552 118.482 41.8169C117.847 42.5786 117.359 43.5015 117.017 44.5854C116.675 45.6597 116.504 46.8657 116.504 48.2036Z" fill="black"/>
</svg>
