<svg width="58" height="58" viewBox="0 0 58 58" fill="none" xmlns="http://www.w3.org/2000/svg">
<rect width="58" height="58" rx="29" fill="#FF0032"/>
<path d="M32.8775 30.8229L29.935 32.6023C29.0572 33.1336 27.9389 33.1336 27.0611 32.6023L24.1185 30.8229C22.6592 29.9409 20.8164 29.9053 19.32 30.7263L15 33.1005V42L20.5441 38.9547C21.2844 38.548 22.1991 38.5658 22.9235 39.003L26.3103 41.0493C27.6375 41.8526 29.3348 41.8195 30.6276 40.9654L34.2021 38.609C34.8366 38.1921 35.6668 38.1743 36.3198 38.5683L41.9961 42V33.1005L37.6761 30.7263C36.1797 29.9053 34.3343 29.9434 32.8775 30.8229Z" fill="white"/>
<path d="M37.0204 24.7194C39.7705 24.7194 42 22.5437 42 19.8597C42 17.1758 39.7705 15 37.0204 15C34.2702 15 32.0407 17.1758 32.0407 19.8597C32.0407 22.5437 34.2702 24.7194 37.0204 24.7194Z" fill="white"/>
</svg>
