<svg width="147" height="82" viewBox="0 0 147 82" fill="none" xmlns="http://www.w3.org/2000/svg">
<path d="M43.7133 16.0527L28.0826 20.0679C27.6805 20.1712 27.384 20.5122 27.3376 20.9247L25.466 37.5702C25.3551 38.556 24.0312 38.7962 23.5811 37.9122L5.42186 2.24337C5.01126 1.43684 5.79783 0.543212 6.64994 0.848138L43.8014 14.1426C44.7295 14.4748 44.6681 15.8075 43.7133 16.0527Z" fill="#3EF920"/>
<rect x="40" y="31.9998" width="107" height="46" rx="10" fill="#3EF920"/>
<path d="M59.3525 42.8953C62.0771 42.8953 64.1914 43.613 65.6953 45.0486C67.1992 46.4841 68.0342 48.115 68.2002 49.9412H65.3584C65.0361 48.5544 64.3916 47.4558 63.4248 46.6453C62.4678 45.8347 61.1201 45.4294 59.3818 45.4294C57.2627 45.4294 55.5488 46.1765 54.2402 47.6707C52.9414 49.155 52.292 51.4353 52.292 54.5115C52.292 57.031 52.8779 59.0769 54.0498 60.6492C55.2314 62.2117 56.9893 62.9929 59.3232 62.9929C61.4717 62.9929 63.1074 62.1677 64.2305 60.5173C64.8262 59.6482 65.2705 58.5056 65.5635 57.0896H68.4053C68.1514 59.3552 67.3115 61.2546 65.8857 62.7878C64.1768 64.6335 61.8721 65.5564 58.9717 65.5564C56.4717 65.5564 54.3721 64.7996 52.6729 63.2859C50.4365 61.2839 49.3184 58.1931 49.3184 54.0134C49.3184 50.8396 50.1582 48.2371 51.8379 46.2058C53.6543 43.9988 56.1592 42.8953 59.3525 42.8953ZM83.0027 56.1228L79.7215 46.5427L76.0887 56.1228H83.0027ZM69.907 64.9998L77.9783 43.1296H81.4793L89.2869 64.9998H86.0936L83.823 58.408H75.3563L72.9539 64.9998H69.907ZM91.6676 43.4666H94.5387V62.4802H102.156V43.4666H105.042V62.4802H112.659V43.4666H115.545V64.9998H91.6676V43.4666ZM131.094 56.1228L127.813 46.5427L124.18 56.1228H131.094ZM117.998 64.9998L126.07 43.1296H129.571L137.378 64.9998H134.185L131.914 58.408H123.448L121.045 64.9998H117.998Z" fill="black"/>
</svg>
