<svg width="360" height="86" viewBox="0 0 360 86" fill="none" xmlns="http://www.w3.org/2000/svg">
<mask id="path-1-outside-1_80_170" maskUnits="userSpaceOnUse" x="-0.453125" y="-0.849609" width="361" height="87" fill="black">
<rect fill="white" x="-0.453125" y="-0.849609" width="361" height="87"/>
<path d="M20 64.1504V21.084H25.7422V38.8379H48.6523V21.084H54.4238V64.1504H48.6523V43.877H25.7422V64.1504H20ZM71.7242 46.3965H85.5523L78.9898 27.2363L71.7242 46.3965ZM65.4547 64.1504H59.3609L75.5035 20.4102H82.5055L98.1207 64.1504H91.734L87.193 50.9668H70.2594L65.4547 64.1504ZM102.882 64.1504V21.084H137.306V64.1504H131.534V26.123H108.624V64.1504H102.882ZM145.641 64.1504V21.084H151.384V55.918H151.501L173.415 21.084H180.065V64.1504H174.294V29.1113H174.177L152.292 64.1504H145.641ZM192.034 42.5586C192.034 53.3398 197.746 60.1953 206.213 60.1953C213.567 60.1953 217.903 54.3652 218.752 48.7402H224.319C223.616 56.2402 217.551 65.2344 206.213 65.2344C198.362 65.2344 186.291 60.8984 186.291 43.1445C186.291 25.625 196.955 20 206.389 20C218.108 20 223.557 27.793 224.026 33.8574H218.401C216.907 28.3203 212.454 25.0391 206.565 25.0391C197.746 25.0391 192.034 31.8652 192.034 42.5586ZM240.125 46.3965H253.953L247.391 27.2363L240.125 46.3965ZM233.855 64.1504H227.762L243.904 20.4102H250.906L266.521 64.1504H260.135L255.594 50.9668H238.66L233.855 64.1504ZM267.679 26.123V21.084H302.718V26.123H288.07V64.1504H282.298V26.123H267.679ZM307.362 64.1504V21.084H313.134V38.8379H324.589C334.902 38.8379 339.648 43.6719 339.648 51.4941C339.648 59.1113 334.696 64.1504 326.025 64.1504H307.362ZM313.134 59.1113H325.263C329.95 59.1113 333.525 57.2363 333.525 51.4941C333.525 45.752 329.921 43.877 324.003 43.877H313.134V59.1113Z"/>
</mask>
<path d="M20 64.1504V21.084H25.7422V38.8379H48.6523V21.084H54.4238V64.1504H48.6523V43.877H25.7422V64.1504H20ZM71.7242 46.3965H85.5523L78.9898 27.2363L71.7242 46.3965ZM65.4547 64.1504H59.3609L75.5035 20.4102H82.5055L98.1207 64.1504H91.734L87.193 50.9668H70.2594L65.4547 64.1504ZM102.882 64.1504V21.084H137.306V64.1504H131.534V26.123H108.624V64.1504H102.882ZM145.641 64.1504V21.084H151.384V55.918H151.501L173.415 21.084H180.065V64.1504H174.294V29.1113H174.177L152.292 64.1504H145.641ZM192.034 42.5586C192.034 53.3398 197.746 60.1953 206.213 60.1953C213.567 60.1953 217.903 54.3652 218.752 48.7402H224.319C223.616 56.2402 217.551 65.2344 206.213 65.2344C198.362 65.2344 186.291 60.8984 186.291 43.1445C186.291 25.625 196.955 20 206.389 20C218.108 20 223.557 27.793 224.026 33.8574H218.401C216.907 28.3203 212.454 25.0391 206.565 25.0391C197.746 25.0391 192.034 31.8652 192.034 42.5586ZM240.125 46.3965H253.953L247.391 27.2363L240.125 46.3965ZM233.855 64.1504H227.762L243.904 20.4102H250.906L266.521 64.1504H260.135L255.594 50.9668H238.66L233.855 64.1504ZM267.679 26.123V21.084H302.718V26.123H288.07V64.1504H282.298V26.123H267.679ZM307.362 64.1504V21.084H313.134V38.8379H324.589C334.902 38.8379 339.648 43.6719 339.648 51.4941C339.648 59.1113 334.696 64.1504 326.025 64.1504H307.362ZM313.134 59.1113H325.263C329.95 59.1113 333.525 57.2363 333.525 51.4941C333.525 45.752 329.921 43.877 324.003 43.877H313.134V59.1113Z" fill="white"/>
<path d="M20 64.1504H0C0 75.1961 8.95431 84.1504 20 84.1504V64.1504ZM20 21.084V1.08398C8.95431 1.08398 0 10.0383 0 21.084H20ZM25.7422 21.084H45.7422C45.7422 10.0383 36.7879 1.08398 25.7422 1.08398V21.084ZM25.7422 38.8379H5.74219C5.74219 49.8836 14.6965 58.8379 25.7422 58.8379V38.8379ZM48.6523 38.8379V58.8379C59.698 58.8379 68.6523 49.8836 68.6523 38.8379H48.6523ZM48.6523 21.084V1.08398C37.6066 1.08398 28.6523 10.0383 28.6523 21.084H48.6523ZM54.4238 21.084H74.4238C74.4238 10.0383 65.4695 1.08398 54.4238 1.08398V21.084ZM54.4238 64.1504V84.1504C65.4695 84.1504 74.4238 75.1961 74.4238 64.1504H54.4238ZM48.6523 64.1504H28.6523C28.6523 75.1961 37.6066 84.1504 48.6523 84.1504V64.1504ZM48.6523 43.877H68.6523C68.6523 32.8313 59.698 23.877 48.6523 23.877V43.877ZM25.7422 43.877V23.877C14.6965 23.877 5.74219 32.8313 5.74219 43.877H25.7422ZM25.7422 64.1504V84.1504C36.7879 84.1504 45.7422 75.1961 45.7422 64.1504H25.7422ZM20 64.1504H40V21.084H20H0V64.1504H20ZM20 21.084V41.084H25.7422V21.084V1.08398H20V21.084ZM25.7422 21.084H5.74219V38.8379H25.7422H45.7422V21.084H25.7422ZM25.7422 38.8379V58.8379H48.6523V38.8379V18.8379H25.7422V38.8379ZM48.6523 38.8379H68.6523V21.084H48.6523H28.6523V38.8379H48.6523ZM48.6523 21.084V41.084H54.4238V21.084V1.08398H48.6523V21.084ZM54.4238 21.084H34.4238V64.1504H54.4238H74.4238V21.084H54.4238ZM54.4238 64.1504V44.1504H48.6523V64.1504V84.1504H54.4238V64.1504ZM48.6523 64.1504H68.6523V43.877H48.6523H28.6523V64.1504H48.6523ZM48.6523 43.877V23.877H25.7422V43.877V63.877H48.6523V43.877ZM25.7422 43.877H5.74219V64.1504H25.7422H45.7422V43.877H25.7422ZM25.7422 64.1504V44.1504H20V64.1504V84.1504H25.7422V64.1504ZM71.7242 46.3965L53.0236 39.3051C50.6932 45.4507 51.531 52.349 55.2648 57.7581C58.9985 63.1672 65.1516 66.3965 71.7242 66.3965V46.3965ZM85.5523 46.3965V66.3965C92.0103 66.3965 98.0708 63.2782 101.825 58.0238C105.58 52.7694 106.566 46.0254 104.473 39.9159L85.5523 46.3965ZM78.9898 27.2363L97.9108 20.7558C95.1796 12.7817 87.7422 7.37579 79.3145 7.23896C70.8868 7.10214 63.2778 12.2637 60.2892 20.145L78.9898 27.2363ZM65.4547 64.1504V84.1504C73.8596 84.1504 81.3677 78.8955 84.2457 70.9987L65.4547 64.1504ZM59.3609 64.1504L40.5979 57.2258C38.3332 63.3624 39.2124 70.2186 42.9522 75.5852C46.692 80.9517 52.8198 84.1504 59.3609 84.1504V64.1504ZM75.5035 20.4102V0.410156C67.1284 0.410156 59.6402 5.62845 56.7405 13.4856L75.5035 20.4102ZM82.5055 20.4102L101.341 13.6858C98.4991 5.72472 90.9587 0.410156 82.5055 0.410156V20.4102ZM98.1207 64.1504V84.1504C104.624 84.1504 110.722 80.9882 114.468 75.6724C118.215 70.3566 119.143 63.551 116.956 57.4261L98.1207 64.1504ZM91.734 64.1504L72.8243 70.6637C75.604 78.7337 83.1987 84.1504 91.734 84.1504V64.1504ZM87.193 50.9668L106.103 44.4535C103.323 36.3835 95.7283 30.9668 87.193 30.9668V50.9668ZM70.2594 50.9668V30.9668C61.8545 30.9668 54.3463 36.2217 51.4684 44.1185L70.2594 50.9668ZM71.7242 46.3965V66.3965H85.5523V46.3965V26.3965H71.7242V46.3965ZM85.5523 46.3965L104.473 39.9159L97.9108 20.7558L78.9898 27.2363L60.0689 33.7169L66.6314 52.8771L85.5523 46.3965ZM78.9898 27.2363L60.2892 20.145L53.0236 39.3051L71.7242 46.3965L90.4248 53.4878L97.6904 34.3277L78.9898 27.2363ZM65.4547 64.1504V44.1504H59.3609V64.1504V84.1504H65.4547V64.1504ZM59.3609 64.1504L78.1239 71.075L94.2665 27.3347L75.5035 20.4102L56.7405 13.4856L40.5979 57.2258L59.3609 64.1504ZM75.5035 20.4102V40.4102H82.5055V20.4102V0.410156H75.5035V20.4102ZM82.5055 20.4102L63.6698 27.1345L79.285 70.8747L98.1207 64.1504L116.956 57.4261L101.341 13.6858L82.5055 20.4102ZM98.1207 64.1504V44.1504H91.734V64.1504V84.1504H98.1207V64.1504ZM91.734 64.1504L110.644 57.6371L106.103 44.4535L87.193 50.9668L68.2833 57.4801L72.8243 70.6637L91.734 64.1504ZM87.193 50.9668V30.9668H70.2594V50.9668V70.9668H87.193V50.9668ZM70.2594 50.9668L51.4684 44.1185L46.6637 57.3021L65.4547 64.1504L84.2457 70.9987L89.0504 57.8151L70.2594 50.9668ZM102.882 64.1504H82.882C82.882 75.1961 91.8363 84.1504 102.882 84.1504V64.1504ZM102.882 21.084V1.08398C91.8363 1.08398 82.882 10.0383 82.882 21.084H102.882ZM137.306 21.084H157.306C157.306 10.0383 148.352 1.08398 137.306 1.08398V21.084ZM137.306 64.1504V84.1504C148.352 84.1504 157.306 75.1961 157.306 64.1504H137.306ZM131.534 64.1504H111.534C111.534 75.1961 120.489 84.1504 131.534 84.1504V64.1504ZM131.534 26.123H151.534C151.534 15.0774 142.58 6.12305 131.534 6.12305V26.123ZM108.624 26.123V6.12305C97.5785 6.12305 88.6242 15.0774 88.6242 26.123H108.624ZM108.624 64.1504V84.1504C119.67 84.1504 128.624 75.1961 128.624 64.1504H108.624ZM102.882 64.1504H122.882V21.084H102.882H82.882V64.1504H102.882ZM102.882 21.084V41.084H137.306V21.084V1.08398H102.882V21.084ZM137.306 21.084H117.306V64.1504H137.306H157.306V21.084H137.306ZM137.306 64.1504V44.1504H131.534V64.1504V84.1504H137.306V64.1504ZM131.534 64.1504H151.534V26.123H131.534H111.534V64.1504H131.534ZM131.534 26.123V6.12305H108.624V26.123V46.123H131.534V26.123ZM108.624 26.123H88.6242V64.1504H108.624H128.624V26.123H108.624ZM108.624 64.1504V44.1504H102.882V64.1504V84.1504H108.624V64.1504ZM145.641 64.1504H125.641C125.641 75.1961 134.596 84.1504 145.641 84.1504V64.1504ZM145.641 21.084V1.08398C134.596 1.08398 125.641 10.0383 125.641 21.084H145.641ZM151.384 21.084H171.384C171.384 10.0383 162.429 1.08398 151.384 1.08398V21.084ZM151.384 55.918H131.384C131.384 66.9637 140.338 75.918 151.384 75.918V55.918ZM151.501 55.918V75.918C158.376 75.918 164.769 72.3869 168.429 66.5678L151.501 55.918ZM173.415 21.084V1.08398C166.54 1.08398 160.147 4.61501 156.486 10.4341L173.415 21.084ZM180.065 21.084H200.065C200.065 10.0383 191.111 1.08398 180.065 1.08398V21.084ZM180.065 64.1504V84.1504C191.111 84.1504 200.065 75.1961 200.065 64.1504H180.065ZM174.294 64.1504H154.294C154.294 75.1961 163.248 84.1504 174.294 84.1504V64.1504ZM174.294 29.1113H194.294C194.294 18.0656 185.339 9.11133 174.294 9.11133V29.1113ZM174.177 29.1113V9.11133C167.279 9.11133 160.868 12.6659 157.213 18.5164L174.177 29.1113ZM152.292 64.1504V84.1504C159.19 84.1504 165.601 80.5958 169.255 74.7453L152.292 64.1504ZM145.641 64.1504H165.641V21.084H145.641H125.641V64.1504H145.641ZM145.641 21.084V41.084H151.384V21.084V1.08398H145.641V21.084ZM151.384 21.084H131.384V55.918H151.384H171.384V21.084H151.384ZM151.384 55.918V75.918H151.501V55.918V35.918H151.384V55.918ZM151.501 55.918L168.429 66.5678L190.344 31.7338L173.415 21.084L156.486 10.4341L134.572 45.2681L151.501 55.918ZM173.415 21.084V41.084H180.065V21.084V1.08398H173.415V21.084ZM180.065 21.084H160.065V64.1504H180.065H200.065V21.084H180.065ZM180.065 64.1504V44.1504H174.294V64.1504V84.1504H180.065V64.1504ZM174.294 64.1504H194.294V29.1113H174.294H154.294V64.1504H174.294ZM174.294 29.1113V9.11133H174.177V29.1113V49.1113H174.294V29.1113ZM174.177 29.1113L157.213 18.5164L135.329 53.5555L152.292 64.1504L169.255 74.7453L191.14 39.7062L174.177 29.1113ZM152.292 64.1504V44.1504H145.641V64.1504V84.1504H152.292V64.1504ZM218.752 48.7402V28.7402C208.86 28.7402 200.454 35.972 198.977 45.7533L218.752 48.7402ZM224.319 48.7402L244.231 50.607C244.757 45.0026 242.896 39.4362 239.106 35.2743C235.316 31.1123 229.948 28.7402 224.319 28.7402V48.7402ZM224.026 33.8574V53.8574C229.598 53.8574 234.917 51.5328 238.703 47.4437C242.488 43.3546 244.396 37.8717 243.966 32.3161L224.026 33.8574ZM218.401 33.8574L199.091 39.0679C201.446 47.7947 209.362 53.8574 218.401 53.8574V33.8574ZM192.034 42.5586H172.034C172.034 51.3135 174.353 60.5539 180.424 68.029C186.802 75.8815 196.106 80.1953 206.213 80.1953V60.1953V40.1953C206.838 40.1953 207.822 40.3333 208.932 40.8545C210.045 41.3778 210.903 42.1087 211.473 42.8109C212.571 44.1629 212.034 44.585 212.034 42.5586H192.034ZM206.213 60.1953V80.1953C226.36 80.1953 236.68 63.9598 238.528 51.7272L218.752 48.7402L198.977 45.7533C199.114 44.8429 199.509 43.7344 200.611 42.6058C201.22 41.9817 202.069 41.3404 203.156 40.8659C204.27 40.3796 205.348 40.1953 206.213 40.1953V60.1953ZM218.752 48.7402V68.7402H224.319V48.7402V28.7402H218.752V48.7402ZM224.319 48.7402L204.406 46.8734C204.44 46.5092 204.508 46.3667 204.515 46.3502C204.53 46.3177 204.581 46.207 204.742 46.038C204.923 45.8464 205.229 45.6011 205.645 45.4176C206.087 45.2222 206.342 45.2344 206.213 45.2344V65.2344V85.2344C230.408 85.2344 242.821 65.6495 244.231 50.607L224.319 48.7402ZM206.213 65.2344V45.2344C206.021 45.2344 205.785 45.1992 205.638 45.1543C205.52 45.1181 205.716 45.1556 206.045 45.4273C206.211 45.5647 206.367 45.7265 206.493 45.8945C206.621 46.064 206.667 46.1694 206.66 46.1538C206.655 46.1428 206.291 45.3112 206.291 43.1445H186.291H166.291C166.291 57.0004 171.262 68.5775 180.571 76.267C189.139 83.3443 199.1 85.2344 206.213 85.2344V65.2344ZM186.291 43.1445H206.291C206.291 40.7797 206.651 39.6318 206.779 39.2991C206.882 39.0303 206.837 39.2608 206.464 39.6097C205.728 40.2978 205.403 40 206.389 40V20V0C197.941 0 187.568 2.51472 179.141 10.3952C170.381 18.588 166.291 30.166 166.291 43.1445H186.291ZM206.389 20V40C207.076 40 207.182 40.1084 206.902 40.0017C206.619 39.8941 206.189 39.659 205.745 39.243C205.324 38.848 204.964 38.3593 204.689 37.787C204.43 37.2465 204.168 36.4678 204.085 35.3987L224.026 33.8574L243.966 32.3161C242.711 16.0709 228.791 0 206.389 0V20ZM224.026 33.8574V13.8574H218.401V33.8574V53.8574H224.026V33.8574ZM218.401 33.8574L237.71 28.647C233.733 13.9097 220.993 5.03906 206.565 5.03906V25.0391V45.0391C205.741 45.0391 204.018 44.7739 202.205 43.4271C200.349 42.0484 199.421 40.2903 199.091 39.0679L218.401 33.8574ZM206.565 25.0391V5.03906C196.57 5.03906 187.167 9.12097 180.614 17.0015C174.372 24.5081 172.034 33.8155 172.034 42.5586H192.034H212.034C212.034 40.6084 212.551 41.156 211.37 42.5761C210.764 43.3059 209.899 44.0033 208.849 44.4804C207.815 44.9507 206.973 45.0391 206.565 45.0391V25.0391ZM240.125 46.3965L221.424 39.3051C219.094 45.4507 219.932 52.349 223.666 57.7581C227.399 63.1672 233.552 66.3965 240.125 66.3965V46.3965ZM253.953 46.3965V66.3965C260.411 66.3965 266.472 63.2782 270.226 58.0238C273.98 52.7694 274.967 46.0254 272.874 39.9159L253.953 46.3965ZM247.391 27.2363L266.312 20.7558C263.58 12.7817 256.143 7.37579 247.715 7.23896C239.288 7.10214 231.679 12.2637 228.69 20.145L247.391 27.2363ZM233.855 64.1504V84.1504C242.26 84.1504 249.769 78.8955 252.646 70.9987L233.855 64.1504ZM227.762 64.1504L208.999 57.2258C206.734 63.3624 207.613 70.2186 211.353 75.5852C215.093 80.9517 221.221 84.1504 227.762 84.1504V64.1504ZM243.904 20.4102V0.410156C235.529 0.410156 228.041 5.62845 225.141 13.4856L243.904 20.4102ZM250.906 20.4102L269.742 13.6858C266.9 5.72472 259.359 0.410156 250.906 0.410156V20.4102ZM266.521 64.1504V84.1504C273.025 84.1504 279.122 80.9882 282.869 75.6724C286.616 70.3566 287.544 63.551 285.357 57.4261L266.521 64.1504ZM260.135 64.1504L241.225 70.6637C244.005 78.7337 251.599 84.1504 260.135 84.1504V64.1504ZM255.594 50.9668L274.503 44.4535C271.724 36.3835 264.129 30.9668 255.594 30.9668V50.9668ZM238.66 50.9668V30.9668C230.255 30.9668 222.747 36.2217 219.869 44.1185L238.66 50.9668ZM240.125 46.3965V66.3965H253.953V46.3965V26.3965H240.125V46.3965ZM253.953 46.3965L272.874 39.9159L266.312 20.7558L247.391 27.2363L228.47 33.7169L235.032 52.8771L253.953 46.3965ZM247.391 27.2363L228.69 20.145L221.424 39.3051L240.125 46.3965L258.826 53.4878L266.091 34.3277L247.391 27.2363ZM233.855 64.1504V44.1504H227.762V64.1504V84.1504H233.855V64.1504ZM227.762 64.1504L246.525 71.075L262.667 27.3347L243.904 20.4102L225.141 13.4856L208.999 57.2258L227.762 64.1504ZM243.904 20.4102V40.4102H250.906V20.4102V0.410156H243.904V20.4102ZM250.906 20.4102L232.071 27.1345L247.686 70.8747L266.521 64.1504L285.357 57.4261L269.742 13.6858L250.906 20.4102ZM266.521 64.1504V44.1504H260.135V64.1504V84.1504H266.521V64.1504ZM260.135 64.1504L279.044 57.6371L274.503 44.4535L255.594 50.9668L236.684 57.4801L241.225 70.6637L260.135 64.1504ZM255.594 50.9668V30.9668H238.66V50.9668V70.9668H255.594V50.9668ZM238.66 50.9668L219.869 44.1185L215.064 57.3021L233.855 64.1504L252.646 70.9987L257.451 57.8151L238.66 50.9668ZM267.679 26.123H247.679C247.679 37.1687 256.634 46.123 267.679 46.123V26.123ZM267.679 21.084V1.08398C256.634 1.08398 247.679 10.0383 247.679 21.084H267.679ZM302.718 21.084H322.718C322.718 10.0383 313.764 1.08398 302.718 1.08398V21.084ZM302.718 26.123V46.123C313.764 46.123 322.718 37.1687 322.718 26.123H302.718ZM288.07 26.123V6.12305C277.024 6.12305 268.07 15.0774 268.07 26.123H288.07ZM288.07 64.1504V84.1504C299.116 84.1504 308.07 75.1961 308.07 64.1504H288.07ZM282.298 64.1504H262.298C262.298 75.1961 271.253 84.1504 282.298 84.1504V64.1504ZM282.298 26.123H302.298C302.298 15.0774 293.344 6.12305 282.298 6.12305V26.123ZM267.679 26.123H287.679V21.084H267.679H247.679V26.123H267.679ZM267.679 21.084V41.084H302.718V21.084V1.08398H267.679V21.084ZM302.718 21.084H282.718V26.123H302.718H322.718V21.084H302.718ZM302.718 26.123V6.12305H288.07V26.123V46.123H302.718V26.123ZM288.07 26.123H268.07V64.1504H288.07H308.07V26.123H288.07ZM288.07 64.1504V44.1504H282.298V64.1504V84.1504H288.07V64.1504ZM282.298 64.1504H302.298V26.123H282.298H262.298V64.1504H282.298ZM282.298 26.123V6.12305H267.679V26.123V46.123H282.298V26.123ZM307.362 64.1504H287.362C287.362 75.1961 296.317 84.1504 307.362 84.1504V64.1504ZM307.362 21.084V1.08398C296.317 1.08398 287.362 10.0383 287.362 21.084H307.362ZM313.134 21.084H333.134C333.134 10.0383 324.18 1.08398 313.134 1.08398V21.084ZM313.134 38.8379H293.134C293.134 49.8836 302.088 58.8379 313.134 58.8379V38.8379ZM313.134 59.1113H293.134C293.134 70.157 302.088 79.1113 313.134 79.1113V59.1113ZM313.134 43.877V23.877C302.088 23.877 293.134 32.8313 293.134 43.877H313.134ZM307.362 64.1504H327.362V21.084H307.362H287.362V64.1504H307.362ZM307.362 21.084V41.084H313.134V21.084V1.08398H307.362V21.084ZM313.134 21.084H293.134V38.8379H313.134H333.134V21.084H313.134ZM313.134 38.8379V58.8379H324.589V38.8379V18.8379H313.134V38.8379ZM324.589 38.8379V58.8379C326.945 58.8379 325.229 59.4156 322.746 57.2236C321.489 56.1133 320.611 54.762 320.113 53.487C319.651 52.3027 319.648 51.5312 319.648 51.4941H339.648H359.648C359.648 43.4444 357.066 34.1668 349.225 27.2417C341.791 20.6771 332.546 18.8379 324.589 18.8379V38.8379ZM339.648 51.4941H319.648C319.648 50.8639 319.961 48.4191 322.293 46.1981C324.532 44.0651 326.518 44.1504 326.025 44.1504V64.1504V84.1504C334.203 84.1504 343.001 81.7161 349.883 75.1593C356.858 68.5145 359.648 59.7415 359.648 51.4941H339.648ZM326.025 64.1504V44.1504H307.362V64.1504V84.1504H326.025V64.1504ZM313.134 59.1113V79.1113H325.263V59.1113V39.1113H313.134V59.1113ZM325.263 59.1113V79.1113C329.743 79.1113 337.125 78.3029 343.664 73.0583C351.049 67.1363 353.525 58.7519 353.525 51.4941H333.525H313.525C313.525 50.8904 313.616 49.3781 314.422 47.4365C315.28 45.3718 316.712 43.3988 318.639 41.8538C320.473 40.3826 322.239 39.708 323.371 39.4057C324.464 39.1139 325.167 39.1113 325.263 39.1113V59.1113ZM333.525 51.4941H353.525C353.525 44.1007 350.91 35.2613 342.703 29.3263C335.896 24.4033 328.304 23.877 324.003 23.877V43.877V63.877C325.621 63.877 322.789 64.2881 319.263 61.7382C317.209 60.2529 315.556 58.2057 314.547 55.8996C313.614 53.7674 313.525 52.0959 313.525 51.4941H333.525ZM324.003 43.877V23.877H313.134V43.877V63.877H324.003V43.877ZM313.134 43.877H293.134V59.1113H313.134H333.134V43.877H313.134Z" fill="#7E1BFF" mask="url(#path-1-outside-1_80_170)"/>
</svg>
